<svg width="16" height="16" viewBox="0 0 16 16" fill="none" xmlns="http://www.w3.org/2000/svg">
<g clip-path="url(#clip0_1812_27587)">
<path d="M6.23996 5.67677H1.5186C0.911144 5.67677 0.416992 5.18262 0.416992 4.57505V1.74224C0.416992 1.13478 0.911144 0.640625 1.5186 0.640625H6.23996C6.84753 0.640625 7.34168 1.13478 7.34168 1.74224V4.57505C7.34168 5.18262 6.84753 5.67677 6.23996 5.67677ZM1.5186 1.5849C1.43181 1.5849 1.36126 1.65544 1.36126 1.74224V4.57505C1.36126 4.66196 1.43181 4.7325 1.5186 4.7325H6.23996C6.32687 4.7325 6.39741 4.66196 6.39741 4.57505V1.74224C6.39741 1.65544 6.32687 1.5849 6.23996 1.5849H1.5186Z" fill="#696E71"/>
<path d="M6.23996 15.7507H1.5186C0.911144 15.7507 0.416992 15.2566 0.416992 14.6491V8.03923C0.416992 7.43165 0.911144 6.9375 1.5186 6.9375H6.23996C6.84753 6.9375 7.34168 7.43165 7.34168 8.03923V14.6491C7.34168 15.2566 6.84753 15.7507 6.23996 15.7507ZM1.5186 7.88177C1.43181 7.88177 1.36126 7.95231 1.36126 8.03923V14.6491C1.36126 14.7359 1.43181 14.8065 1.5186 14.8065H6.23996C6.32687 14.8065 6.39741 14.7359 6.39741 14.6491V8.03923C6.39741 7.95231 6.32687 7.88177 6.23996 7.88177H1.5186Z" fill="#696E71"/>
<path d="M14.4237 15.7471H9.70231C9.09474 15.7471 8.60059 15.2529 8.60059 14.6455V11.8127C8.60059 11.2051 9.09474 10.7109 9.70231 10.7109H14.4237C15.0311 10.7109 15.5253 11.2051 15.5253 11.8127V14.6455C15.5253 15.2529 15.0311 15.7471 14.4237 15.7471ZM9.70231 11.6552C9.6154 11.6552 9.54486 11.7258 9.54486 11.8127V14.6455C9.54486 14.7323 9.6154 14.8028 9.70231 14.8028H14.4237C14.5105 14.8028 14.581 14.7323 14.581 14.6455V11.8127C14.581 11.7258 14.5105 11.6552 14.4237 11.6552H9.70231Z" fill="#696E71"/>
<path d="M14.4237 9.45386H9.70231C9.09474 9.45386 8.60059 8.95971 8.60059 8.35213V1.74224C8.60059 1.13478 9.09474 0.640625 9.70231 0.640625H14.4237C15.0311 0.640625 15.5253 1.13478 15.5253 1.74224V8.35213C15.5253 8.95971 15.0311 9.45386 14.4237 9.45386ZM9.70231 1.5849C9.6154 1.5849 9.54486 1.65544 9.54486 1.74224V8.35213C9.54486 8.43904 9.6154 8.50959 9.70231 8.50959H14.4237C14.5105 8.50959 14.581 8.43904 14.581 8.35213V1.74224C14.581 1.65544 14.5105 1.5849 14.4237 1.5849H9.70231Z" fill="#696E71"/>
</g>
<defs>
<clipPath id="clip0_1812_27587">
<rect width="15.1083" height="15.1083" fill="white" transform="translate(0.416992 0.640625)"/>
</clipPath>
</defs>
</svg>
